<?xml version="1.0" standalone="no"?>
<!DOCTYPE svg PUBLIC "-//W3C//DTD SVG 20010904//EN"
 "http://www.w3.org/TR/2001/REC-SVG-20010904/DTD/svg10.dtd">
<svg version="1.0" xmlns="http://www.w3.org/2000/svg"
 width="500.000000pt" height="500.000000pt" viewBox="0 0 500.000000 500.000000"
 preserveAspectRatio="xMidYMid meet">

<g transform="translate(0.000000,500.000000) scale(0.100000,-0.100000)"
fill="#000000" stroke="none">
<path d="M0 2500 l0 -2500 2500 0 2500 0 0 2500 0 2500 -2500 0 -2500 0 0
-2500z m2207 588 l-54 -73 -112 -3 -111 -3 0 -344 c0 -190 2 -345 4 -345 2 0
140 189 307 420 l304 419 338 1 c185 0 337 -2 337 -4 0 -3 -106 -150 -235
-328 -129 -178 -235 -326 -235 -329 0 -4 103 -148 228 -321 125 -172 231 -319
236 -326 6 -9 -65 -12 -331 -12 l-338 0 -118 161 -117 160 49 64 48 64 109
-149 108 -150 149 0 149 0 -16 25 c-9 14 -87 123 -174 242 -87 120 -161 224
-166 231 -5 8 57 101 173 261 100 137 181 252 181 255 0 3 -66 6 -147 6 l-148
-1 -410 -566 c-225 -311 -415 -573 -422 -582 -10 -13 -12 122 -13 642 l0 657
240 0 240 0 -53 -72z"/>
</g>
</svg>
